<mxfile host="app.diagrams.net" modified="2020-12-28T13:55:15.716Z" agent="5.0 (Macintosh; Intel Mac OS X 10_14_1) AppleWebKit/605.1.15 (KHTML, like Gecko) Version/12.0.1 Safari/605.1.15" etag="DczSCDCLq8p2y3rC17pu" version="14.1.3" type="github">
  <diagram id="gq1q3ddG7L9HmQMllKBU" name="Page-1">
    <mxGraphModel dx="689" dy="581" grid="0" gridSize="10" guides="1" tooltips="1" connect="1" arrows="1" fold="1" page="1" pageScale="1" pageWidth="827" pageHeight="1169" math="0" shadow="0">
      <root>
        <mxCell id="0" />
        <mxCell id="1" parent="0" />
        <mxCell id="pQrO1s0kcfmX7lAv2vVk-1" value="" style="rounded=0;whiteSpace=wrap;html=1;" vertex="1" parent="1">
          <mxGeometry x="100" y="150" width="120" height="60" as="geometry" />
        </mxCell>
        <mxCell id="pQrO1s0kcfmX7lAv2vVk-2" value="&lt;font style=&quot;font-size: 16px&quot;&gt;网络接入&lt;/font&gt;" style="text;html=1;strokeColor=none;fillColor=none;align=center;verticalAlign=middle;whiteSpace=wrap;rounded=0;" vertex="1" parent="1">
          <mxGeometry x="125" y="170" width="70" height="20" as="geometry" />
        </mxCell>
        <mxCell id="pQrO1s0kcfmX7lAv2vVk-4" value="" style="rounded=0;whiteSpace=wrap;html=1;" vertex="1" parent="1">
          <mxGeometry x="100" y="230" width="120" height="60" as="geometry" />
        </mxCell>
        <mxCell id="pQrO1s0kcfmX7lAv2vVk-5" value="" style="rounded=0;whiteSpace=wrap;html=1;" vertex="1" parent="1">
          <mxGeometry x="100" y="310" width="120" height="60" as="geometry" />
        </mxCell>
        <mxCell id="pQrO1s0kcfmX7lAv2vVk-9" value="&lt;font size=&quot;3&quot;&gt;安全性&lt;/font&gt;" style="text;html=1;strokeColor=none;fillColor=none;align=center;verticalAlign=middle;whiteSpace=wrap;rounded=0;" vertex="1" parent="1">
          <mxGeometry x="125" y="250" width="70" height="20" as="geometry" />
        </mxCell>
        <mxCell id="pQrO1s0kcfmX7lAv2vVk-10" value="&lt;font size=&quot;3&quot;&gt;资源调配&lt;/font&gt;" style="text;html=1;strokeColor=none;fillColor=none;align=center;verticalAlign=middle;whiteSpace=wrap;rounded=0;" vertex="1" parent="1">
          <mxGeometry x="125" y="330" width="70" height="20" as="geometry" />
        </mxCell>
        <mxCell id="pQrO1s0kcfmX7lAv2vVk-12" value="" style="rounded=0;whiteSpace=wrap;html=1;" vertex="1" parent="1">
          <mxGeometry x="410" y="110" width="120" height="60" as="geometry" />
        </mxCell>
        <mxCell id="pQrO1s0kcfmX7lAv2vVk-13" value="&lt;font size=&quot;3&quot;&gt;用户界面&lt;/font&gt;" style="text;html=1;strokeColor=none;fillColor=none;align=center;verticalAlign=middle;whiteSpace=wrap;rounded=0;" vertex="1" parent="1">
          <mxGeometry x="435" y="130" width="70" height="20" as="geometry" />
        </mxCell>
        <mxCell id="pQrO1s0kcfmX7lAv2vVk-14" value="" style="rounded=0;whiteSpace=wrap;html=1;" vertex="1" parent="1">
          <mxGeometry x="410" y="190" width="120" height="60" as="geometry" />
        </mxCell>
        <mxCell id="pQrO1s0kcfmX7lAv2vVk-15" value="" style="rounded=0;whiteSpace=wrap;html=1;" vertex="1" parent="1">
          <mxGeometry x="410" y="270" width="120" height="60" as="geometry" />
        </mxCell>
        <mxCell id="pQrO1s0kcfmX7lAv2vVk-16" value="&lt;font size=&quot;3&quot;&gt;网络分析&lt;/font&gt;" style="text;html=1;strokeColor=none;fillColor=none;align=center;verticalAlign=middle;whiteSpace=wrap;rounded=0;" vertex="1" parent="1">
          <mxGeometry x="435" y="210" width="70" height="20" as="geometry" />
        </mxCell>
        <mxCell id="pQrO1s0kcfmX7lAv2vVk-17" value="&lt;font size=&quot;3&quot;&gt;拓扑定位&lt;/font&gt;" style="text;html=1;strokeColor=none;fillColor=none;align=center;verticalAlign=middle;whiteSpace=wrap;rounded=0;" vertex="1" parent="1">
          <mxGeometry x="435" y="290" width="70" height="20" as="geometry" />
        </mxCell>
        <mxCell id="pQrO1s0kcfmX7lAv2vVk-18" value="" style="rounded=0;whiteSpace=wrap;html=1;" vertex="1" parent="1">
          <mxGeometry x="410" y="350" width="120" height="60" as="geometry" />
        </mxCell>
        <mxCell id="pQrO1s0kcfmX7lAv2vVk-22" value="&lt;font size=&quot;3&quot;&gt;加速优化&lt;/font&gt;" style="text;html=1;strokeColor=none;fillColor=none;align=center;verticalAlign=middle;whiteSpace=wrap;rounded=0;" vertex="1" parent="1">
          <mxGeometry x="435" y="370" width="70" height="20" as="geometry" />
        </mxCell>
        <mxCell id="pQrO1s0kcfmX7lAv2vVk-23" value="" style="rounded=0;whiteSpace=wrap;html=1;" vertex="1" parent="1">
          <mxGeometry x="260" y="230" width="120" height="60" as="geometry" />
        </mxCell>
        <mxCell id="pQrO1s0kcfmX7lAv2vVk-24" value="&lt;font style=&quot;font-size: 16px&quot;&gt;网络管&lt;br&gt;理系统&lt;/font&gt;" style="text;html=1;strokeColor=none;fillColor=none;align=center;verticalAlign=middle;whiteSpace=wrap;rounded=0;" vertex="1" parent="1">
          <mxGeometry x="270" y="250" width="100" height="20" as="geometry" />
        </mxCell>
      </root>
    </mxGraphModel>
  </diagram>
</mxfile>
